<svg xmlns="http://www.w3.org/2000/svg" xmlns:xlink="http://www.w3.org/1999/xlink" width="123.486" height="122" viewBox="0 0 123.486 122">
  <defs>
    <radialGradient id="radial-gradient" cx="0.5" cy="0.5" r="0.787" gradientUnits="objectBoundingBox">
      <stop offset="0" stop-color="#feb969"/>
      <stop offset="0.447" stop-color="#feb969"/>
      <stop offset="1" stop-color="#d37100"/>
    </radialGradient>
    <filter id="Path_494" x="0" y="0" width="123.486" height="122" filterUnits="userSpaceOnUse">
      <feOffset dy="3" input="SourceAlpha"/>
      <feGaussianBlur stdDeviation="3" result="blur"/>
      <feFlood flood-opacity="0.161"/>
      <feComposite operator="in" in2="blur"/>
      <feComposite in="SourceGraphic"/>
    </filter>
  </defs>
  <g id="Group_840" data-name="Group 840" transform="translate(-14569 3638)">
    <g id="Group_294" data-name="Group 294" transform="translate(14578 -3632)">
      <g transform="matrix(1, 0, 0, 1, -9, -6)" filter="url(#Path_494)">
        <path id="Path_494-2" data-name="Path 494" d="M52.743,0c29.129,0,52.743,23.281,52.743,52s-23.614,52-52.743,52S0,80.719,0,52,23.614,0,52.743,0Z" transform="translate(9 6)" fill="url(#radial-gradient)"/>
      </g>
    </g>
    <g id="book-of-black-cover-closed" transform="translate(14573.564 -3605)">
      <path id="Path_559" data-name="Path 559" d="M42.874,40.367H77.318a1.314,1.314,0,0,0,.306-.038h.022A1.333,1.333,0,0,0,78.979,39V1.333A1.333,1.333,0,0,0,77.646,0H42.876a6.44,6.44,0,0,0-6.432,6.432,1.36,1.36,0,0,0,.014.139c0,3.276-.045,33.375,0,37.332,0,.077-.012.153-.012.231a6.436,6.436,0,0,0,6.028,6.412,1.321,1.321,0,0,0,.2.02H77.646a1.333,1.333,0,0,0,1.333-1.333V44.217a1.333,1.333,0,0,0-2.665,0V47.9H42.874a3.769,3.769,0,0,1-3.759-3.613c0-.036.008-.07.008-.106,0-.059,0-.15,0-.271A3.77,3.77,0,0,1,42.874,40.367Zm.909-33.935a1.333,1.333,0,1,1,2.665,0V33.5a1.333,1.333,0,1,1-2.665,0V6.432Z" fill="#fff"/>
    </g>
  </g>
</svg>
