<svg xmlns="http://www.w3.org/2000/svg" width="22.144" height="26.32" viewBox="0 0 22.144 26.32">
  <g id="book-of-black-cover-closed" transform="translate(-36.436)">
    <path id="Path_559" data-name="Path 559" d="M39.787,21.011H57.715a.684.684,0,0,0,.159-.02h.012a.694.694,0,0,0,.694-.694V.694A.694.694,0,0,0,57.886,0h-18.1A3.352,3.352,0,0,0,36.44,3.348a.708.708,0,0,0,.007.072c0,1.705-.024,17.372,0,19.432,0,.04-.006.08-.006.12a3.35,3.35,0,0,0,3.138,3.338.688.688,0,0,0,.106.01h18.2a.694.694,0,0,0,.694-.694V23.015a.694.694,0,0,0-1.387,0v1.917H39.787a1.962,1.962,0,0,1-1.957-1.88c0-.019,0-.036,0-.055s0-.078,0-.141A1.962,1.962,0,0,1,39.787,21.011ZM40.26,3.348a.694.694,0,1,1,1.387,0v14.09a.694.694,0,1,1-1.387,0V3.348Z" fill="#feb969"/>
  </g>
</svg>
