<svg xmlns="http://www.w3.org/2000/svg" width="57.38" height="34.352" viewBox="0 0 57.38 34.352">
  <g id="Group_817" data-name="Group 817" transform="translate(-140.824 -198.888)">
    <path id="Path_543" data-name="Path 543" d="M396.676,326.133a3.17,3.17,0,0,1-3.564-.039l-1.637,8h6.9Z" transform="translate(-200.171 -101.587)" fill="#fff"/>
    <path id="Path_544" data-name="Path 544" d="M405.151,275.269v-6.717a16.932,16.932,0,0,0-1.759.651.891.891,0,0,0-.408.658c-.033,1.793-.018,3.587-.018,5.442a6.1,6.1,0,0,1,1.08-.207A6.854,6.854,0,0,1,405.151,275.269Z" transform="translate(-209.345 -55.634)" fill="#fff"/>
    <path id="Path_545" data-name="Path 545" d="M399.922,308.273a1.739,1.739,0,1,0,3.477.087,1.739,1.739,0,0,0-3.477-.087Z" transform="translate(-206.916 -86.022)" fill="#fff"/>
    <path id="Path_546" data-name="Path 546" d="M233.034,287.593c-5.084,1.8-10,3.542-14.926,5.255a2.64,2.64,0,0,1-1.548.159c-2.86-.945-5.693-1.973-8.533-2.978-2.155-.762-4.31-1.531-6.617-2.351h0l-.327-.124v8.788h0a4.865,4.865,0,0,0,2.89,4.393c.5.281.987.573,1.5.808a27.986,27.986,0,0,0,18.479,1.661,18.64,18.64,0,0,0,7.628-3.459,3.517,3.517,0,0,0,1.461-3.03Z" transform="translate(-48.124 -70.808)" fill="#fff"/>
    <path id="Path_547" data-name="Path 547" d="M165.379,219.011c1.2.423,2.4.822,3.591,1.227.358-.115.678-.21.993-.321q4.629-1.636,9.256-3.276,8.332-2.945,16.666-5.886c.619-.218,1.254-.439,1.28-1.224.028-.851-.641-1.081-1.294-1.312q-12.892-4.555-25.776-9.13a3.257,3.257,0,0,0-2.331.027q-10.511,3.749-21.037,7.456c-1.6.566-3.21,1.094-4.78,1.727v0s-1.15.309-1.119,1.23a.382.382,0,0,0,.011.154,1.136,1.136,0,0,0,.582.771.755.755,0,0,0,.152.081l.094.034.007,0,.007,0c3.76,1.386,7.543,2.71,11.321,4.049Q159.189,216.819,165.379,219.011Z" transform="translate(0 0)" fill="#fff"/>
  </g>
</svg>
