<svg xmlns="http://www.w3.org/2000/svg" width="34.163" height="20.452" viewBox="0 0 34.163 20.452">
  <g id="Group_809" data-name="Group 809" transform="translate(-140.824 -198.888)">
    <path id="Path_543" data-name="Path 543" d="M394.572,326.117a1.887,1.887,0,0,1-2.122-.023l-.974,4.762h4.108Z" transform="translate(-220.597 -111.953)" fill="#11cdef"/>
    <path id="Path_544" data-name="Path 544" d="M404.266,272.551v-4a10.088,10.088,0,0,0-1.047.387.531.531,0,0,0-.243.392c-.02,1.068-.011,2.136-.011,3.24a3.632,3.632,0,0,1,.643-.123A4.082,4.082,0,0,1,404.266,272.551Z" transform="translate(-230.706 -61.311)" fill="#11cdef"/>
    <path id="Path_545" data-name="Path 545" d="M399.922,307.6a1.035,1.035,0,1,0,2.07.052,1.035,1.035,0,0,0-2.07-.052Z" transform="translate(-228.029 -94.8)" fill="#11cdef"/>
    <path id="Path_546" data-name="Path 546" d="M220.106,287.577c-3.027,1.069-5.953,2.109-8.886,3.129a1.572,1.572,0,0,1-.922.095c-1.7-.563-3.389-1.175-5.081-1.773-1.283-.454-2.566-.912-3.939-1.4h0l-.194-.074v5.232h0a2.9,2.9,0,0,0,1.72,2.616c.295.167.588.341.9.481a16.662,16.662,0,0,0,11,.989,11.1,11.1,0,0,0,4.541-2.059,2.094,2.094,0,0,0,.87-1.8Z" transform="translate(-53.034 -78.034)" fill="#11cdef"/>
    <path id="Path_547" data-name="Path 547" d="M155.444,210.869c.712.252,1.43.489,2.138.731.213-.069.4-.125.591-.191l5.511-1.95q4.961-1.754,9.923-3.5c.369-.13.747-.262.762-.729.017-.507-.382-.644-.77-.781q-7.676-2.712-15.347-5.436a1.939,1.939,0,0,0-1.388.016q-6.258,2.232-12.525,4.439c-.951.337-1.911.651-2.846,1.028h0s-.685.184-.666.732a.227.227,0,0,0,.006.092.677.677,0,0,0,.346.459.45.45,0,0,0,.09.048l.056.02,0,0h0c2.239.825,4.491,1.613,6.74,2.411Q151.758,209.564,155.444,210.869Z" transform="translate(0)" fill="#11cdef"/>
  </g>
</svg>
