<svg xmlns="http://www.w3.org/2000/svg" xmlns:xlink="http://www.w3.org/1999/xlink" width="123.486" height="122" viewBox="0 0 123.486 122">
  <defs>
    <radialGradient id="radial-gradient" cx="0.5" cy="0.5" r="0.787" gradientUnits="objectBoundingBox">
      <stop offset="0" stop-color="#2cca95"/>
      <stop offset="0.447" stop-color="#2cca95"/>
      <stop offset="1" stop-color="#039f63"/>
    </radialGradient>
    <filter id="Path_494" x="0" y="0" width="123.486" height="122" filterUnits="userSpaceOnUse">
      <feOffset dy="3" input="SourceAlpha"/>
      <feGaussianBlur stdDeviation="3" result="blur"/>
      <feFlood flood-opacity="0.161"/>
      <feComposite operator="in" in2="blur"/>
      <feComposite in="SourceGraphic"/>
    </filter>
  </defs>
  <g id="Group_838" data-name="Group 838" transform="translate(-14150 3795)">
    <g id="Group_294" data-name="Group 294" transform="translate(14159 -3789)">
      <g transform="matrix(1, 0, 0, 1, -9, -6)" filter="url(#Path_494)">
        <path id="Path_494-2" data-name="Path 494" d="M52.743,0c29.129,0,52.743,23.281,52.743,52s-23.614,52-52.743,52S0,80.719,0,52,23.614,0,52.743,0Z" transform="translate(9 6)" fill="url(#radial-gradient)"/>
      </g>
    </g>
    <path id="ic_description_24px" d="M29.03,2H9.006A5,5,0,0,0,4.025,7.006L4,47.054A5,5,0,0,0,8.981,52.06H39.042a5.021,5.021,0,0,0,5.006-5.006V17.018Zm5.006,40.048H14.012V37.042H34.036Zm0-10.012H14.012V27.03H34.036ZM26.527,19.521V5.755L40.294,19.521Z" transform="translate(14188 -3764)" fill="#fff"/>
  </g>
</svg>
