<svg xmlns="http://www.w3.org/2000/svg" width="32.373" height="28.154" viewBox="0 0 32.373 28.154">
  <g id="briefcase_1_" data-name="briefcase (1)" transform="translate(0 -32.857)">
    <path id="Path_550" data-name="Path 550" d="M29.144,38.093H22.171v-2.81a2.429,2.429,0,0,0-2.426-2.426H12.627A2.429,2.429,0,0,0,10.2,35.283v2.81H3.228A3.225,3.225,0,0,0,.007,41.314c0,1.613-.165,3.062,1.057,4.692a5.244,5.244,0,0,0,2.749,1.9L14.56,51.036a5.808,5.808,0,0,0,3.253,0l10.746-3.129a5.244,5.244,0,0,0,2.749-1.9c1.228-1.637,1.057-3.1,1.057-4.692a3.225,3.225,0,0,0-3.221-3.221Zm-16.888-2.81a.372.372,0,0,1,.371-.371h7.119a.372.372,0,0,1,.371.371v2.81H12.255Z" transform="translate(0)" fill="#fff"/>
    <path id="Path_551" data-name="Path 551" d="M29.243,269.509c-11.591,3.375-11.441,3.443-12.947,3.443s-1.14-.006-12.947-3.443a7.277,7.277,0,0,1-3.232-1.952v9.861a3.225,3.225,0,0,0,3.221,3.221H29.254a3.225,3.225,0,0,0,3.221-3.221v-9.861a7.277,7.277,0,0,1-3.232,1.952Z" transform="translate(-0.11 -219.628)" fill="#fff"/>
  </g>
</svg>
