<svg xmlns="http://www.w3.org/2000/svg" xmlns:xlink="http://www.w3.org/1999/xlink" width="123.486" height="122" viewBox="0 0 123.486 122">
  <defs>
    <radialGradient id="radial-gradient" cx="0.5" cy="0.5" r="0.851" gradientUnits="objectBoundingBox">
      <stop offset="0" stop-color="#fb6340"/>
      <stop offset="0.447" stop-color="#fb6340"/>
      <stop offset="1" stop-color="#c12400"/>
    </radialGradient>
    <filter id="Path_494" x="0" y="0" width="123.486" height="122" filterUnits="userSpaceOnUse">
      <feOffset dy="3" input="SourceAlpha"/>
      <feGaussianBlur stdDeviation="3" result="blur"/>
      <feFlood flood-opacity="0.161"/>
      <feComposite operator="in" in2="blur"/>
      <feComposite in="SourceGraphic"/>
    </filter>
  </defs>
  <g id="Group_837" data-name="Group 837" transform="translate(-14133 3662)">
    <g id="Group_790" data-name="Group 790" transform="translate(14142 -3656)">
      <g transform="matrix(1, 0, 0, 1, -9, -6)" filter="url(#Path_494)">
        <path id="Path_494-2" data-name="Path 494" d="M52.743,0c29.129,0,52.743,23.281,52.743,52s-23.614,52-52.743,52S0,80.719,0,52,23.614,0,52.743,0Z" transform="translate(9 6)" fill="url(#radial-gradient)"/>
      </g>
    </g>
    <g id="Group_831" data-name="Group 831" transform="translate(14172 -3627)">
      <path id="Path_555" data-name="Path 555" d="M162.03,26.312l18.483-5.045-.979-1.978a2.6,2.6,0,0,0-3.488-1.177l-16.546,8.2Z" transform="translate(-151.196 -17.84)" fill="#fff"/>
      <path id="Path_556" data-name="Path 556" d="M340.291,86.46a2.6,2.6,0,0,0-.687.094l-4.342,1.187L322,91.359h21.612l-.812-2.978A2.6,2.6,0,0,0,340.291,86.46Z" transform="translate(-305.235 -82.887)" fill="#fff"/>
      <path id="Path_557" data-name="Path 557" d="M41.09,215.56H2.608a2.606,2.606,0,0,0-2.515,1.921,2.7,2.7,0,0,0-.094.682v29.006a2.6,2.6,0,0,0,2.6,2.6H41.085a2.6,2.6,0,0,0,2.6-2.6v-7.263H28.24a4.428,4.428,0,0,1-4.426-4.426v-5.79a4.419,4.419,0,0,1,4.42-4.42H43.688v-7.107A2.6,2.6,0,0,0,41.09,215.56Z" transform="translate(0 -205.266)" fill="#fff"/>
      <path id="Path_558" data-name="Path 558" d="M512.278,437.443a2.6,2.6,0,0,0-.911-.541,2.653,2.653,0,0,0-.843-.141H495a2.6,2.6,0,0,0-2.6,2.6v5.795a2.6,2.6,0,0,0,2.6,2.6h15.521a2.653,2.653,0,0,0,.843-.141,2.524,2.524,0,0,0,.911-.542,2.594,2.594,0,0,0,.849-1.921v-5.795A2.594,2.594,0,0,0,512.278,437.443Zm-11.84,5.337a1.3,1.3,0,0,1-1.3,1.3h-.864a1.3,1.3,0,0,1-1.3-1.3v-.864a1.276,1.276,0,0,1,.5-1.021,1.315,1.315,0,0,1,.8-.281h.864a1.3,1.3,0,0,1,1.3,1.3v.864Z" transform="translate(-466.763 -414.95)" fill="#fff"/>
    </g>
  </g>
</svg>
