<svg xmlns="http://www.w3.org/2000/svg" xmlns:xlink="http://www.w3.org/1999/xlink" width="89" height="88" viewBox="0 0 89 88">
  <defs>
    <radialGradient id="radial-gradient" cx="0.5" cy="0.5" r="0.65" gradientUnits="objectBoundingBox">
      <stop offset="0" stop-color="#172b4d"/>
      <stop offset="0.584" stop-color="#172b4d"/>
      <stop offset="1" stop-color="#04132f"/>
    </radialGradient>
    <filter id="Path_494" x="0" y="0" width="89" height="88" filterUnits="userSpaceOnUse">
      <feOffset dy="3" input="SourceAlpha"/>
      <feGaussianBlur stdDeviation="3" result="blur"/>
      <feFlood flood-opacity="0.161"/>
      <feComposite operator="in" in2="blur"/>
      <feComposite in="SourceGraphic"/>
    </filter>
  </defs>
  <g id="Group_991" data-name="Group 991" transform="translate(-777 -482)">
    <g id="Group_783" data-name="Group 783" transform="translate(786 488)">
      <g transform="matrix(1, 0, 0, 1, -9, -6)" filter="url(#Path_494)">
        <path id="Path_494-2" data-name="Path 494" d="M35.5,0C55.106,0,71,15.67,71,35S55.106,70,35.5,70,0,54.33,0,35,15.894,0,35.5,0Z" transform="translate(9 6)" fill="url(#radial-gradient)"/>
      </g>
    </g>
    <path id="ic_receipt_24px" d="M23.6,22.6H7.119V19.85H23.6Zm0-5.492H7.119V14.358H23.6Zm0-5.492H7.119V8.866H23.6ZM3,29.462,5.06,27.4l2.06,2.06,2.06-2.06,2.06,2.06L13.3,27.4l2.06,2.06,2.06-2.06,2.06,2.06,2.06-2.06,2.06,2.06,2.06-2.06,2.06,2.06V2l-2.06,2.06L23.6,2l-2.06,2.06L19.477,2l-2.06,2.06L15.358,2,13.3,4.06,11.239,2,9.179,4.06,7.119,2,5.06,4.06,3,2Z" transform="translate(806 507)" fill="#fff"/>
  </g>
</svg>
