<svg xmlns="http://www.w3.org/2000/svg" xmlns:xlink="http://www.w3.org/1999/xlink" width="89" height="88" viewBox="0 0 89 88">
  <defs>
    <radialGradient id="radial-gradient" cx="0.5" cy="0.5" r="0.65" gradientUnits="objectBoundingBox">
      <stop offset="0" stop-color="#172b4d"/>
      <stop offset="0.584" stop-color="#172b4d"/>
      <stop offset="1" stop-color="#04132f"/>
    </radialGradient>
    <filter id="Path_494" x="0" y="0" width="89" height="88" filterUnits="userSpaceOnUse">
      <feOffset dy="3" input="SourceAlpha"/>
      <feGaussianBlur stdDeviation="3" result="blur"/>
      <feFlood flood-opacity="0.161"/>
      <feComposite operator="in" in2="blur"/>
      <feComposite in="SourceGraphic"/>
    </filter>
  </defs>
  <g id="Group_992" data-name="Group 992" transform="translate(-1250 -483)">
    <g id="Group_785" data-name="Group 785" transform="translate(524.98 -2)">
      <g id="Group_783" data-name="Group 783" transform="translate(734.02 491)">
        <g transform="matrix(1, 0, 0, 1, -9, -6)" filter="url(#Path_494)">
          <path id="Path_494-2" data-name="Path 494" d="M35.5,0C55.106,0,71,15.67,71,35S55.106,70,35.5,70,0,54.33,0,35,15.894,0,35.5,0Z" transform="translate(9 6)" fill="url(#radial-gradient)"/>
        </g>
      </g>
    </g>
    <path id="ic_description_24px" d="M19.056,2H7.011a3.007,3.007,0,0,0-3,3.011L4,29.1a3.007,3.007,0,0,0,3,3.011H25.078A3.02,3.02,0,0,0,28.089,29.1V11.033Zm3.011,24.089H10.022V23.078H22.067Zm0-6.022H10.022V17.056H22.067ZM17.55,12.539V4.258l8.281,8.281Z" transform="translate(1278 507)" fill="#fff"/>
  </g>
</svg>
