<svg xmlns="http://www.w3.org/2000/svg" xmlns:xlink="http://www.w3.org/1999/xlink" width="89" height="88" viewBox="0 0 89 88">
  <defs>
    <radialGradient id="radial-gradient" cx="0.5" cy="0.5" r="0.65" gradientUnits="objectBoundingBox">
      <stop offset="0" stop-color="#172b4d"/>
      <stop offset="0.584" stop-color="#172b4d"/>
      <stop offset="1" stop-color="#04132f"/>
    </radialGradient>
    <filter id="Path_494" x="0" y="0" width="89" height="88" filterUnits="userSpaceOnUse">
      <feOffset dy="3" input="SourceAlpha"/>
      <feGaussianBlur stdDeviation="3" result="blur"/>
      <feFlood flood-opacity="0.161"/>
      <feComposite operator="in" in2="blur"/>
      <feComposite in="SourceGraphic"/>
    </filter>
  </defs>
  <g id="Group_993" data-name="Group 993" transform="translate(-1726 -481)">
    <g id="Group_824" data-name="Group 824" transform="translate(591 -15)">
      <g id="Group_785" data-name="Group 785" transform="translate(409.98 11)">
        <g id="Group_783" data-name="Group 783" transform="translate(734.02 491)">
          <g transform="matrix(1, 0, 0, 1, -9, -6)" filter="url(#Path_494)">
            <path id="Path_494-2" data-name="Path 494" d="M35.5,0C55.106,0,71,15.67,71,35S55.106,70,35.5,70,0,54.33,0,35,15.894,0,35.5,0Z" transform="translate(9 6)" fill="url(#radial-gradient)"/>
          </g>
        </g>
      </g>
    </g>
    <g id="briefcase_1_" data-name="briefcase (1)" transform="translate(1754 475.143)">
      <path id="Path_550" data-name="Path 550" d="M29.144,38.093H22.171v-2.81a2.429,2.429,0,0,0-2.426-2.426H12.627A2.429,2.429,0,0,0,10.2,35.283v2.81H3.228A3.225,3.225,0,0,0,.007,41.314c0,1.613-.165,3.062,1.057,4.692a5.244,5.244,0,0,0,2.749,1.9L14.56,51.036a5.808,5.808,0,0,0,3.253,0l10.746-3.129a5.244,5.244,0,0,0,2.749-1.9c1.228-1.637,1.057-3.1,1.057-4.692a3.225,3.225,0,0,0-3.221-3.221Zm-16.888-2.81a.372.372,0,0,1,.371-.371h7.119a.372.372,0,0,1,.371.371v2.81H12.255Z" transform="translate(0)" fill="#fff"/>
      <path id="Path_551" data-name="Path 551" d="M29.243,269.509c-11.591,3.375-11.441,3.443-12.947,3.443s-1.14-.006-12.947-3.443a7.277,7.277,0,0,1-3.232-1.952v9.861a3.225,3.225,0,0,0,3.221,3.221H29.254a3.225,3.225,0,0,0,3.221-3.221v-9.861a7.277,7.277,0,0,1-3.232,1.952Z" transform="translate(-0.11 -219.628)" fill="#fff"/>
    </g>
  </g>
</svg>
