<svg xmlns="http://www.w3.org/2000/svg" xmlns:xlink="http://www.w3.org/1999/xlink" width="123.486" height="122" viewBox="0 0 123.486 122">
  <defs>
    <radialGradient id="radial-gradient" cx="0.5" cy="0.5" r="0.787" gradientUnits="objectBoundingBox">
      <stop offset="0" stop-color="#2cca95"/>
      <stop offset="0.447" stop-color="#2cca95"/>
      <stop offset="1" stop-color="#017247"/>
    </radialGradient>
    <filter id="Path_494" x="0" y="0" width="123.486" height="122" filterUnits="userSpaceOnUse">
      <feOffset dy="3" input="SourceAlpha"/>
      <feGaussianBlur stdDeviation="3" result="blur"/>
      <feFlood flood-opacity="0.161"/>
      <feComposite operator="in" in2="blur"/>
      <feComposite in="SourceGraphic"/>
    </filter>
  </defs>
  <g id="Group_990" data-name="Group 990" transform="translate(-1163 -297)">
    <g transform="matrix(1, 0, 0, 1, 1163, 297)" filter="url(#Path_494)">
      <path id="Path_494-2" data-name="Path 494" d="M52.743,0c29.129,0,52.743,23.281,52.743,52s-23.614,52-52.743,52S0,80.719,0,52,23.614,0,52.743,0Z" transform="translate(9 6)" fill="url(#radial-gradient)"/>
    </g>
    <g id="Group_812" data-name="Group 812" transform="translate(-10451 3839)">
      <g id="Group_811" data-name="Group 811" transform="translate(11648 -3501)">
        <rect id="Rectangle_1544" data-name="Rectangle 1544" width="11" height="28" rx="3" transform="translate(6 7)" fill="#fff"/>
        <rect id="Rectangle_1546" data-name="Rectangle 1546" width="9" height="28" rx="3" transform="translate(39 7)" fill="#fff"/>
        <rect id="Rectangle_1545" data-name="Rectangle 1545" width="56" height="15" rx="2" fill="#fff"/>
        <rect id="Rectangle_1565" data-name="Rectangle 1565" width="26" height="6" transform="translate(15 20)" fill="#fff"/>
      </g>
    </g>
  </g>
</svg>
