<svg xmlns="http://www.w3.org/2000/svg" width="35.743" height="28.445" viewBox="0 0 35.743 28.445">
  <g id="home" style="isolation: isolate">
    <g id="Group_780" data-name="Group 780" transform="translate(0)">
      <path id="Path_539" data-name="Path 539" d="M12.77,0,25.518,10.509a.124.124,0,0,0,0,.012s0,.01,0,.015l0,.018,0,.021,0,.021,0,.018c0,.005,0,.01,0,.015a.122.122,0,0,1,0,.013V21.283a1.446,1.446,0,0,1-.026.279,1.313,1.313,0,0,1-.079.259,1.35,1.35,0,0,1-.132.24,1.623,1.623,0,0,1-.4.4,1.355,1.355,0,0,1-.24.132,1.313,1.313,0,0,1-.259.079,1.441,1.441,0,0,1-.279.026H15.608V14.189H9.932V22.7H1.419a1.443,1.443,0,0,1-.279-.026A1.313,1.313,0,0,1,.882,22.6a1.351,1.351,0,0,1-.24-.132,1.638,1.638,0,0,1-.4-.4,1.351,1.351,0,0,1-.132-.24,1.313,1.313,0,0,1-.079-.259A1.443,1.443,0,0,1,0,21.283V10.642q0-.022,0-.042t0-.036a.254.254,0,0,1,.007-.03.161.161,0,0,1,.01-.025Z" transform="translate(5.101 5.742)" fill="#7764e4"/>
      <path id="Path_540" data-name="Path 540" d="M.247,13.857,5.1,9.822V3.572a.852.852,0,0,1,.012-.148.7.7,0,0,1,.037-.134.647.647,0,0,1,.062-.121.7.7,0,0,1,.194-.194.644.644,0,0,1,.12-.062.7.7,0,0,1,.134-.037.855.855,0,0,1,.148-.012h4.257a.853.853,0,0,1,.148.012.7.7,0,0,1,.134.037.648.648,0,0,1,.121.062.687.687,0,0,1,.194.194.648.648,0,0,1,.062.121.7.7,0,0,1,.037.134.853.853,0,0,1,.012.148V5.1L16.186.576a2.572,2.572,0,0,1,.371-.252,2.474,2.474,0,0,1,.4-.18A2.614,2.614,0,0,1,17.4.036a3.1,3.1,0,0,1,.942,0,2.615,2.615,0,0,1,.438.108,2.476,2.476,0,0,1,.4.18,2.577,2.577,0,0,1,.371.252L35.5,13.857a.667.667,0,0,1,.1.1.611.611,0,0,1,.073.111.644.644,0,0,1,.048.127.771.771,0,0,1,.024.142.838.838,0,0,1,0,.145.721.721,0,0,1-.026.135.686.686,0,0,1-.051.126.731.731,0,0,1-.076.116l-1.375,1.641a.735.735,0,0,1-.1.09.716.716,0,0,1-.109.071.77.77,0,0,1-.123.051.9.9,0,0,1-.137.032.71.71,0,0,1-.133,0,.752.752,0,0,1-.133-.026.876.876,0,0,1-.133-.051,1.09,1.09,0,0,1-.133-.076L17.871,3.791,2.53,16.584a.581.581,0,0,1-.1.068.617.617,0,0,1-.109.048.73.73,0,0,1-.123.029.935.935,0,0,1-.137.01H2a.889.889,0,0,1-.137-.032.767.767,0,0,1-.123-.051.722.722,0,0,1-.109-.071.748.748,0,0,1-.1-.09L.157,14.854a.737.737,0,0,1-.076-.116.687.687,0,0,1-.051-.126A.718.718,0,0,1,0,14.478a.834.834,0,0,1,0-.145.767.767,0,0,1,.024-.142.645.645,0,0,1,.049-.127.615.615,0,0,1,.073-.111A.672.672,0,0,1,.247,13.857Z" transform="translate(0)" fill="#7764e4"/>
    </g>
  </g>
</svg>
