<svg xmlns="http://www.w3.org/2000/svg" width="88.816" height="90.064" viewBox="0 0 88.816 90.064">
  <g id="income" transform="translate(-3.548)">
    <path id="Path_552" data-name="Path 552" d="M201.029,44.561a22.28,22.28,0,1,0-22.28-22.28A22.3,22.3,0,0,0,201.029,44.561Z" transform="translate(-144.382)" fill="#fff"/>
    <path id="Path_553" data-name="Path 553" d="M20.548,319.631a2.459,2.459,0,0,0-3.359-.9L4.778,325.9a2.462,2.462,0,0,0-.9,3.36l12.685,21.971a2.46,2.46,0,0,0,3.359.9l12.412-7.166a2.458,2.458,0,0,0,.9-3.359Z" transform="translate(0 -262.392)" fill="#fff"/>
    <path id="Path_554" data-name="Path 554" d="M201.039,276.965a3.7,3.7,0,0,0-5.163-.839c-5.027,3.622-14.681,10.577-15.448,11.131a9.316,9.316,0,0,1-1.112.815,9.573,9.573,0,0,1-5.117,1.465H161.56a2.639,2.639,0,0,1,0-5.277h13.517a3.5,3.5,0,0,0,3.494-3.643,3.552,3.552,0,0,0-3.578-3.351H164.7a17.112,17.112,0,0,0-2.278-2.016,16.878,16.878,0,0,0-10.051-3.3,18.617,18.617,0,0,0-16.106,9.84l10.794,18.694h20.247a22.725,22.725,0,0,0,11.337-3,45.381,45.381,0,0,0,3.859-2.507c5.808-4.173,17.684-12.841,17.693-12.847A3.7,3.7,0,0,0,201.039,276.965Z" transform="translate(-109.373 -224.112)" fill="#fff"/>
  </g>
</svg>
