<svg id="Group_815" data-name="Group 815" xmlns="http://www.w3.org/2000/svg" width="20.999" height="21" viewBox="0 0 20.999 21">
  <g id="Group_814" data-name="Group 814" transform="translate(0)">
    <path id="Path_548" data-name="Path 548" d="M307.363,152.5a.884.884,0,0,0-.19-.285l-2.624-2.624a.875.875,0,0,0-1.237,1.237l1.131,1.131h-4.888a.875.875,0,0,0,0,1.75h4.888l-1.131,1.131a.875.875,0,1,0,1.237,1.237l2.624-2.624a.866.866,0,0,0,.19-.285A.876.876,0,0,0,307.363,152.5Z" transform="translate(-286.43 -143.214)" fill="#fb6340"/>
    <path id="Path_549" data-name="Path 549" d="M14.889,12.25a.875.875,0,0,0-.875.875V17.5h-3.5V3.5a.876.876,0,0,0-.624-.838L6.851,1.75h7.163V6.125a.875.875,0,0,0,1.75,0V.875A.875.875,0,0,0,14.889,0h-14A.78.78,0,0,0,.8.017.864.864,0,0,0,.428.146C.409.158.385.159.367.173S.357.188.35.193A.867.867,0,0,0,.117.47.715.715,0,0,0,.093.543a.83.83,0,0,0-.069.2.545.545,0,0,0,0,.076C.025.842.014.858.014.875v17.5a.874.874,0,0,0,.7.858l8.75,1.75A.814.814,0,0,0,9.639,21a.876.876,0,0,0,.875-.875V19.25h4.375a.875.875,0,0,0,.875-.875v-5.25A.875.875,0,0,0,14.889,12.25Z" transform="translate(-0.014)" fill="#fb6340"/>
  </g>
</svg>
