<svg xmlns="http://www.w3.org/2000/svg" width="24.716" height="27.462" viewBox="0 0 24.716 27.462">
  <path id="ic_receipt_24px" d="M23.6,22.6H7.119V19.85H23.6Zm0-5.492H7.119V14.358H23.6Zm0-5.492H7.119V8.866H23.6ZM3,29.462,5.06,27.4l2.06,2.06,2.06-2.06,2.06,2.06L13.3,27.4l2.06,2.06,2.06-2.06,2.06,2.06,2.06-2.06,2.06,2.06,2.06-2.06,2.06,2.06V2l-2.06,2.06L23.6,2l-2.06,2.06L19.477,2l-2.06,2.06L15.358,2,13.3,4.06,11.239,2,9.179,4.06,7.119,2,5.06,4.06,3,2Z" transform="translate(-3 -2)" fill="#fff"/>
</svg>
