<svg id="user" xmlns="http://www.w3.org/2000/svg" width="22.947" height="27.505" viewBox="0 0 22.947 27.505">
  <path id="Path_541" data-name="Path 541" d="M93.656,13.249a6.41,6.41,0,0,0,4.684-1.941,6.41,6.41,0,0,0,1.941-4.684A6.411,6.411,0,0,0,98.34,1.94a6.623,6.623,0,0,0-9.368,0,6.41,6.41,0,0,0-1.941,4.684,6.41,6.41,0,0,0,1.941,4.684A6.411,6.411,0,0,0,93.656,13.249Zm0,0" transform="translate(-82.356 0)" fill="#11cdef"/>
  <path id="Path_542" data-name="Path 542" d="M22.892,255.18a16.361,16.361,0,0,0-.223-1.738,13.694,13.694,0,0,0-.427-1.747,8.631,8.631,0,0,0-.718-1.63,6.15,6.15,0,0,0-1.083-1.412,4.776,4.776,0,0,0-1.556-.978,5.377,5.377,0,0,0-1.986-.359,2.016,2.016,0,0,0-1.077.457c-.323.211-.7.454-1.122.723a6.426,6.426,0,0,1-1.451.639,5.636,5.636,0,0,1-3.55,0,6.411,6.411,0,0,1-1.45-.639c-.417-.267-.8-.51-1.123-.724a2.013,2.013,0,0,0-1.076-.457,5.371,5.371,0,0,0-1.986.36,4.773,4.773,0,0,0-1.556.978,6.151,6.151,0,0,0-1.083,1.411,8.648,8.648,0,0,0-.718,1.63,13.726,13.726,0,0,0-.427,1.747,16.3,16.3,0,0,0-.223,1.739c-.037.526-.055,1.073-.055,1.624a4.567,4.567,0,0,0,1.356,3.455,4.883,4.883,0,0,0,3.5,1.275H18.1a4.882,4.882,0,0,0,3.5-1.275,4.565,4.565,0,0,0,1.357-3.456C22.947,256.251,22.929,255.7,22.892,255.18Zm0,0" transform="translate(0 -234.03)" fill="#11cdef"/>
</svg>
