<svg id="Group_831" data-name="Group 831" xmlns="http://www.w3.org/2000/svg" width="25.693" height="24.664" viewBox="0 0 25.693 24.664">
  <path id="Path_555" data-name="Path 555" d="M160.9,22.535l10.243-2.8-.542-1.1a1.443,1.443,0,0,0-1.933-.652L159.5,22.535Z" transform="translate(-154.898 -17.84)" fill="#fb6340"/>
  <path id="Path_556" data-name="Path 556" d="M332.136,86.46a1.442,1.442,0,0,0-.381.052l-2.406.658L322,89.175h11.977l-.45-1.65A1.44,1.44,0,0,0,332.136,86.46Z" transform="translate(-312.709 -84.48)" fill="#fb6340"/>
  <path id="Path_557" data-name="Path 557" d="M22.771,215.56H1.446a1.444,1.444,0,0,0-1.394,1.065A1.493,1.493,0,0,0,0,217v16.074a1.443,1.443,0,0,0,1.443,1.443H22.768a1.443,1.443,0,0,0,1.443-1.443v-4.025H15.65A2.454,2.454,0,0,1,13.2,226.6v-3.208a2.449,2.449,0,0,1,2.45-2.45H24.21V217A1.439,1.439,0,0,0,22.771,215.56Z" transform="translate(0 -209.855)" fill="#fb6340"/>
  <path id="Path_558" data-name="Path 558" d="M503.416,437.139a1.441,1.441,0,0,0-.5-.3,1.471,1.471,0,0,0-.467-.078h-8.6A1.443,1.443,0,0,0,492.4,438.2v3.211a1.443,1.443,0,0,0,1.443,1.443h8.6a1.471,1.471,0,0,0,.467-.078,1.4,1.4,0,0,0,.5-.3,1.437,1.437,0,0,0,.47-1.065V438.2A1.437,1.437,0,0,0,503.416,437.139Zm-6.561,2.957a.722.722,0,0,1-.721.721h-.479a.722.722,0,0,1-.721-.721v-.479a.707.707,0,0,1,.277-.566.729.729,0,0,1,.444-.156h.479a.722.722,0,0,1,.721.721v.479Z" transform="translate(-478.193 -424.674)" fill="#fb6340"/>
</svg>
